<mxfile host="Electron" agent="Mozilla/5.0 (Windows NT 10.0; Win64; x64) AppleWebKit/537.36 (KHTML, like Gecko) draw.io/24.7.17 Chrome/128.0.6613.36 Electron/32.0.1 Safari/537.36" version="24.7.17">
  <diagram name="Page-1" id="4H9oXmzPafto4ljivwnN">
    <mxGraphModel dx="1105" dy="673" grid="1" gridSize="10" guides="1" tooltips="1" connect="1" arrows="1" fold="1" page="1" pageScale="1" pageWidth="2339" pageHeight="3300" math="0" shadow="0">
      <root>
        <mxCell id="0" />
        <mxCell id="1" parent="0" />
        <mxCell id="q-aWWqVt3g7oYGVb8VbU-9" value="" style="shape=mxgraph.cisco.computers_and_peripherals.workstation;sketch=0;html=1;pointerEvents=1;dashed=0;fillColor=#036897;strokeColor=#ffffff;strokeWidth=2;verticalLabelPosition=bottom;verticalAlign=top;align=center;outlineConnect=0;" vertex="1" parent="1">
          <mxGeometry x="1341.3600000000001" y="508" width="83" height="62" as="geometry" />
        </mxCell>
        <mxCell id="q-aWWqVt3g7oYGVb8VbU-10" value="gateway router" style="shape=mxgraph.cisco.routers.router;sketch=0;html=1;pointerEvents=1;dashed=0;fillColor=#036897;strokeColor=#ffffff;strokeWidth=2;verticalLabelPosition=bottom;verticalAlign=top;align=center;outlineConnect=0;" vertex="1" parent="1">
          <mxGeometry x="1000" y="610" width="78" height="53" as="geometry" />
        </mxCell>
        <mxCell id="q-aWWqVt3g7oYGVb8VbU-24" value="" style="group" vertex="1" connectable="0" parent="1">
          <mxGeometry x="480" y="290" width="356" height="373" as="geometry" />
        </mxCell>
        <mxCell id="q-aWWqVt3g7oYGVb8VbU-1" value="" style="shape=mxgraph.cisco.routers.router;sketch=0;html=1;pointerEvents=1;dashed=0;fillColor=#036897;strokeColor=#ffffff;strokeWidth=2;verticalLabelPosition=bottom;verticalAlign=top;align=center;outlineConnect=0;" vertex="1" parent="q-aWWqVt3g7oYGVb8VbU-24">
          <mxGeometry width="78" height="53" as="geometry" />
        </mxCell>
        <mxCell id="q-aWWqVt3g7oYGVb8VbU-2" value="" style="shape=mxgraph.cisco.routers.router;sketch=0;html=1;pointerEvents=1;dashed=0;fillColor=#036897;strokeColor=#ffffff;strokeWidth=2;verticalLabelPosition=bottom;verticalAlign=top;align=center;outlineConnect=0;" vertex="1" parent="q-aWWqVt3g7oYGVb8VbU-24">
          <mxGeometry x="278" y="160" width="78" height="53" as="geometry" />
        </mxCell>
        <mxCell id="q-aWWqVt3g7oYGVb8VbU-3" value="" style="shape=mxgraph.cisco.routers.router;sketch=0;html=1;pointerEvents=1;dashed=0;fillColor=#036897;strokeColor=#ffffff;strokeWidth=2;verticalLabelPosition=bottom;verticalAlign=top;align=center;outlineConnect=0;" vertex="1" parent="q-aWWqVt3g7oYGVb8VbU-24">
          <mxGeometry y="160" width="78" height="53" as="geometry" />
        </mxCell>
        <mxCell id="q-aWWqVt3g7oYGVb8VbU-4" value="" style="shape=mxgraph.cisco.routers.router;sketch=0;html=1;pointerEvents=1;dashed=0;fillColor=#036897;strokeColor=#ffffff;strokeWidth=2;verticalLabelPosition=bottom;verticalAlign=top;align=center;outlineConnect=0;" vertex="1" parent="q-aWWqVt3g7oYGVb8VbU-24">
          <mxGeometry x="278" y="320" width="78" height="53" as="geometry" />
        </mxCell>
        <mxCell id="q-aWWqVt3g7oYGVb8VbU-5" value="" style="shape=mxgraph.cisco.routers.router;sketch=0;html=1;pointerEvents=1;dashed=0;fillColor=#036897;strokeColor=#ffffff;strokeWidth=2;verticalLabelPosition=bottom;verticalAlign=top;align=center;outlineConnect=0;" vertex="1" parent="q-aWWqVt3g7oYGVb8VbU-24">
          <mxGeometry x="278" width="78" height="53" as="geometry" />
        </mxCell>
        <mxCell id="q-aWWqVt3g7oYGVb8VbU-6" value="" style="shape=mxgraph.cisco.routers.router;sketch=0;html=1;pointerEvents=1;dashed=0;fillColor=#036897;strokeColor=#ffffff;strokeWidth=2;verticalLabelPosition=bottom;verticalAlign=top;align=center;outlineConnect=0;" vertex="1" parent="q-aWWqVt3g7oYGVb8VbU-24">
          <mxGeometry y="320" width="78" height="53" as="geometry" />
        </mxCell>
        <mxCell id="q-aWWqVt3g7oYGVb8VbU-11" value="" style="endArrow=none;html=1;rounded=0;entryX=0.12;entryY=0.9;entryDx=0;entryDy=0;entryPerimeter=0;exitX=0.88;exitY=0.1;exitDx=0;exitDy=0;exitPerimeter=0;" edge="1" parent="q-aWWqVt3g7oYGVb8VbU-24" source="q-aWWqVt3g7oYGVb8VbU-6" target="q-aWWqVt3g7oYGVb8VbU-2">
          <mxGeometry width="50" height="50" relative="1" as="geometry">
            <mxPoint x="268" y="270" as="sourcePoint" />
            <mxPoint x="318" y="220" as="targetPoint" />
          </mxGeometry>
        </mxCell>
        <mxCell id="q-aWWqVt3g7oYGVb8VbU-12" value="" style="endArrow=none;html=1;rounded=0;exitX=1;exitY=0.5;exitDx=0;exitDy=0;exitPerimeter=0;" edge="1" parent="q-aWWqVt3g7oYGVb8VbU-24" source="q-aWWqVt3g7oYGVb8VbU-3" target="q-aWWqVt3g7oYGVb8VbU-2">
          <mxGeometry width="50" height="50" relative="1" as="geometry">
            <mxPoint x="268" y="270" as="sourcePoint" />
            <mxPoint x="318" y="220" as="targetPoint" />
          </mxGeometry>
        </mxCell>
        <mxCell id="q-aWWqVt3g7oYGVb8VbU-14" value="" style="endArrow=none;html=1;rounded=0;exitX=0.5;exitY=0;exitDx=0;exitDy=0;exitPerimeter=0;entryX=0.5;entryY=1;entryDx=0;entryDy=0;entryPerimeter=0;" edge="1" parent="q-aWWqVt3g7oYGVb8VbU-24" source="q-aWWqVt3g7oYGVb8VbU-4" target="q-aWWqVt3g7oYGVb8VbU-2">
          <mxGeometry width="50" height="50" relative="1" as="geometry">
            <mxPoint x="268" y="270" as="sourcePoint" />
            <mxPoint x="318" y="220" as="targetPoint" />
          </mxGeometry>
        </mxCell>
        <mxCell id="q-aWWqVt3g7oYGVb8VbU-15" value="" style="endArrow=none;html=1;rounded=0;exitX=1;exitY=0.5;exitDx=0;exitDy=0;exitPerimeter=0;entryX=0;entryY=0.5;entryDx=0;entryDy=0;entryPerimeter=0;" edge="1" parent="q-aWWqVt3g7oYGVb8VbU-24" source="q-aWWqVt3g7oYGVb8VbU-6" target="q-aWWqVt3g7oYGVb8VbU-4">
          <mxGeometry width="50" height="50" relative="1" as="geometry">
            <mxPoint x="268" y="270" as="sourcePoint" />
            <mxPoint x="318" y="220" as="targetPoint" />
          </mxGeometry>
        </mxCell>
        <mxCell id="q-aWWqVt3g7oYGVb8VbU-16" value="" style="endArrow=none;html=1;rounded=0;exitX=0.5;exitY=1;exitDx=0;exitDy=0;exitPerimeter=0;entryX=0.5;entryY=0;entryDx=0;entryDy=0;entryPerimeter=0;" edge="1" parent="q-aWWqVt3g7oYGVb8VbU-24" source="q-aWWqVt3g7oYGVb8VbU-3" target="q-aWWqVt3g7oYGVb8VbU-6">
          <mxGeometry width="50" height="50" relative="1" as="geometry">
            <mxPoint x="268" y="270" as="sourcePoint" />
            <mxPoint x="318" y="220" as="targetPoint" />
          </mxGeometry>
        </mxCell>
        <mxCell id="q-aWWqVt3g7oYGVb8VbU-17" value="" style="endArrow=none;html=1;rounded=0;exitX=0.5;exitY=1;exitDx=0;exitDy=0;exitPerimeter=0;entryX=0.5;entryY=0;entryDx=0;entryDy=0;entryPerimeter=0;" edge="1" parent="q-aWWqVt3g7oYGVb8VbU-24" source="q-aWWqVt3g7oYGVb8VbU-1" target="q-aWWqVt3g7oYGVb8VbU-3">
          <mxGeometry width="50" height="50" relative="1" as="geometry">
            <mxPoint x="268" y="270" as="sourcePoint" />
            <mxPoint x="318" y="220" as="targetPoint" />
          </mxGeometry>
        </mxCell>
        <mxCell id="q-aWWqVt3g7oYGVb8VbU-19" value="" style="endArrow=none;html=1;rounded=0;entryX=0.5;entryY=1;entryDx=0;entryDy=0;entryPerimeter=0;" edge="1" parent="q-aWWqVt3g7oYGVb8VbU-24" source="q-aWWqVt3g7oYGVb8VbU-2" target="q-aWWqVt3g7oYGVb8VbU-5">
          <mxGeometry width="50" height="50" relative="1" as="geometry">
            <mxPoint x="268" y="270" as="sourcePoint" />
            <mxPoint x="318" y="220" as="targetPoint" />
          </mxGeometry>
        </mxCell>
        <mxCell id="q-aWWqVt3g7oYGVb8VbU-20" value="" style="endArrow=none;html=1;rounded=0;entryX=0.12;entryY=0.1;entryDx=0;entryDy=0;entryPerimeter=0;" edge="1" parent="q-aWWqVt3g7oYGVb8VbU-24" target="q-aWWqVt3g7oYGVb8VbU-4">
          <mxGeometry width="50" height="50" relative="1" as="geometry">
            <mxPoint x="58" y="200" as="sourcePoint" />
            <mxPoint x="318" y="220" as="targetPoint" />
          </mxGeometry>
        </mxCell>
        <mxCell id="q-aWWqVt3g7oYGVb8VbU-21" value="" style="endArrow=none;html=1;rounded=0;exitX=0.88;exitY=0.1;exitDx=0;exitDy=0;exitPerimeter=0;entryX=0.12;entryY=0.9;entryDx=0;entryDy=0;entryPerimeter=0;" edge="1" parent="q-aWWqVt3g7oYGVb8VbU-24" source="q-aWWqVt3g7oYGVb8VbU-3" target="q-aWWqVt3g7oYGVb8VbU-5">
          <mxGeometry width="50" height="50" relative="1" as="geometry">
            <mxPoint x="268" y="270" as="sourcePoint" />
            <mxPoint x="318" y="220" as="targetPoint" />
          </mxGeometry>
        </mxCell>
        <mxCell id="q-aWWqVt3g7oYGVb8VbU-22" value="" style="endArrow=none;html=1;rounded=0;entryX=0.12;entryY=0.1;entryDx=0;entryDy=0;entryPerimeter=0;exitX=0.88;exitY=0.9;exitDx=0;exitDy=0;exitPerimeter=0;" edge="1" parent="q-aWWqVt3g7oYGVb8VbU-24" source="q-aWWqVt3g7oYGVb8VbU-1" target="q-aWWqVt3g7oYGVb8VbU-2">
          <mxGeometry width="50" height="50" relative="1" as="geometry">
            <mxPoint x="268" y="270" as="sourcePoint" />
            <mxPoint x="318" y="220" as="targetPoint" />
          </mxGeometry>
        </mxCell>
        <mxCell id="q-aWWqVt3g7oYGVb8VbU-23" value="" style="endArrow=none;html=1;rounded=0;exitX=1;exitY=0.5;exitDx=0;exitDy=0;exitPerimeter=0;" edge="1" parent="q-aWWqVt3g7oYGVb8VbU-24" source="q-aWWqVt3g7oYGVb8VbU-1" target="q-aWWqVt3g7oYGVb8VbU-5">
          <mxGeometry width="50" height="50" relative="1" as="geometry">
            <mxPoint x="268" y="270" as="sourcePoint" />
            <mxPoint x="318" y="220" as="targetPoint" />
          </mxGeometry>
        </mxCell>
        <mxCell id="q-aWWqVt3g7oYGVb8VbU-26" value="" style="shape=mxgraph.cisco.computers_and_peripherals.workstation;sketch=0;html=1;pointerEvents=1;dashed=0;fillColor=#036897;strokeColor=#ffffff;strokeWidth=2;verticalLabelPosition=bottom;verticalAlign=top;align=center;outlineConnect=0;" vertex="1" parent="1">
          <mxGeometry x="1341.3600000000001" y="658" width="83" height="62" as="geometry" />
        </mxCell>
        <mxCell id="q-aWWqVt3g7oYGVb8VbU-27" value="" style="endArrow=none;dashed=1;html=1;dashPattern=1 3;strokeWidth=2;rounded=0;" edge="1" parent="1" source="q-aWWqVt3g7oYGVb8VbU-26" target="q-aWWqVt3g7oYGVb8VbU-9">
          <mxGeometry width="50" height="50" relative="1" as="geometry">
            <mxPoint x="1031.3600000000001" y="700" as="sourcePoint" />
            <mxPoint x="1081.3600000000001" y="650" as="targetPoint" />
          </mxGeometry>
        </mxCell>
        <mxCell id="q-aWWqVt3g7oYGVb8VbU-28" value="" style="endArrow=none;html=1;rounded=0;" edge="1" parent="1" source="q-aWWqVt3g7oYGVb8VbU-10" target="q-aWWqVt3g7oYGVb8VbU-4">
          <mxGeometry width="50" height="50" relative="1" as="geometry">
            <mxPoint x="720" y="700" as="sourcePoint" />
            <mxPoint x="770" y="650" as="targetPoint" />
          </mxGeometry>
        </mxCell>
        <mxCell id="q-aWWqVt3g7oYGVb8VbU-30" value="" style="endArrow=none;html=1;rounded=0;entryX=0.99;entryY=0.5;entryDx=0;entryDy=0;entryPerimeter=0;" edge="1" parent="1" source="q-aWWqVt3g7oYGVb8VbU-26" target="q-aWWqVt3g7oYGVb8VbU-46">
          <mxGeometry width="50" height="50" relative="1" as="geometry">
            <mxPoint x="1031.3600000000001" y="700" as="sourcePoint" />
            <mxPoint x="1290" y="657.7" as="targetPoint" />
          </mxGeometry>
        </mxCell>
        <mxCell id="q-aWWqVt3g7oYGVb8VbU-31" value="" style="endArrow=none;html=1;rounded=0;" edge="1" parent="1" source="q-aWWqVt3g7oYGVb8VbU-46" target="q-aWWqVt3g7oYGVb8VbU-9">
          <mxGeometry width="50" height="50" relative="1" as="geometry">
            <mxPoint x="1290" y="615.3" as="sourcePoint" />
            <mxPoint x="1081.3600000000001" y="650" as="targetPoint" />
          </mxGeometry>
        </mxCell>
        <mxCell id="q-aWWqVt3g7oYGVb8VbU-40" value="&lt;div&gt;&lt;br&gt;&lt;/div&gt;&lt;div&gt;&lt;br&gt;&lt;/div&gt;&lt;div&gt;&lt;br&gt;&lt;/div&gt;&lt;div&gt;&lt;br&gt;&lt;/div&gt;&lt;div&gt;&lt;br&gt;&lt;/div&gt;&lt;div&gt;&lt;br&gt;&lt;/div&gt;&lt;div&gt;&lt;br&gt;&lt;/div&gt;&lt;div&gt;&lt;br&gt;&lt;/div&gt;&lt;div&gt;&lt;br&gt;&lt;/div&gt;&lt;div&gt;&lt;br&gt;&lt;/div&gt;core provider network" style="ellipse;shape=cloud;whiteSpace=wrap;html=1;align=center;fillColor=none;verticalAlign=top;" vertex="1" parent="1">
          <mxGeometry x="380" y="100" width="540" height="720" as="geometry" />
        </mxCell>
        <mxCell id="q-aWWqVt3g7oYGVb8VbU-41" value="" style="endArrow=none;html=1;rounded=0;exitX=1;exitY=0.5;exitDx=0;exitDy=0;exitPerimeter=0;entryX=0.172;entryY=0.31;entryDx=0;entryDy=0;entryPerimeter=0;" edge="1" parent="1" source="q-aWWqVt3g7oYGVb8VbU-33" target="q-aWWqVt3g7oYGVb8VbU-40">
          <mxGeometry width="50" height="50" relative="1" as="geometry">
            <mxPoint x="360" y="420" as="sourcePoint" />
            <mxPoint x="350" y="500" as="targetPoint" />
          </mxGeometry>
        </mxCell>
        <mxCell id="q-aWWqVt3g7oYGVb8VbU-42" value="192.168.1.50" style="text;html=1;align=center;verticalAlign=middle;whiteSpace=wrap;rounded=0;" vertex="1" parent="1">
          <mxGeometry x="1421.3600000000001" y="510" width="60" height="30" as="geometry" />
        </mxCell>
        <mxCell id="q-aWWqVt3g7oYGVb8VbU-43" value="192.168.1.100" style="text;html=1;align=center;verticalAlign=middle;whiteSpace=wrap;rounded=0;" vertex="1" parent="1">
          <mxGeometry x="1424.3600000000001" y="663" width="57" height="30" as="geometry" />
        </mxCell>
        <mxCell id="q-aWWqVt3g7oYGVb8VbU-44" value="192.168.1.1" style="text;html=1;align=center;verticalAlign=middle;whiteSpace=wrap;rounded=0;" vertex="1" parent="1">
          <mxGeometry x="1078" y="600" width="60" height="30" as="geometry" />
        </mxCell>
        <mxCell id="q-aWWqVt3g7oYGVb8VbU-45" value="" style="endArrow=none;html=1;rounded=0;exitX=1;exitY=0.5;exitDx=0;exitDy=0;exitPerimeter=0;" edge="1" parent="1" source="q-aWWqVt3g7oYGVb8VbU-10" target="q-aWWqVt3g7oYGVb8VbU-46">
          <mxGeometry width="50" height="50" relative="1" as="geometry">
            <mxPoint x="1100" y="620" as="sourcePoint" />
            <mxPoint x="1100" y="490" as="targetPoint" />
          </mxGeometry>
        </mxCell>
        <mxCell id="q-aWWqVt3g7oYGVb8VbU-46" value="switch" style="shape=mxgraph.cisco.hubs_and_gateways.small_hub;sketch=0;html=1;pointerEvents=1;dashed=0;fillColor=#036897;strokeColor=#ffffff;strokeWidth=2;verticalLabelPosition=bottom;verticalAlign=top;align=center;outlineConnect=0;" vertex="1" parent="1">
          <mxGeometry x="1150" y="614" width="90" height="45" as="geometry" />
        </mxCell>
        <mxCell id="q-aWWqVt3g7oYGVb8VbU-47" value="82.71.94.21" style="text;whiteSpace=wrap;" vertex="1" parent="1">
          <mxGeometry x="930" y="614" width="100" height="30" as="geometry" />
        </mxCell>
        <mxCell id="q-aWWqVt3g7oYGVb8VbU-48" value="82.71.90.21" style="text;whiteSpace=wrap;" vertex="1" parent="1">
          <mxGeometry x="398" y="270" width="100" height="30" as="geometry" />
        </mxCell>
        <mxCell id="q-aWWqVt3g7oYGVb8VbU-51" value="switch" style="shape=mxgraph.cisco.hubs_and_gateways.small_hub;sketch=0;html=1;pointerEvents=1;dashed=0;fillColor=#036897;strokeColor=#ffffff;strokeWidth=2;verticalLabelPosition=bottom;verticalAlign=top;align=center;outlineConnect=0;" vertex="1" parent="1">
          <mxGeometry x="163" y="284" width="90" height="45" as="geometry" />
        </mxCell>
        <mxCell id="q-aWWqVt3g7oYGVb8VbU-32" value="" style="shape=mxgraph.cisco.computers_and_peripherals.workstation;sketch=0;html=1;pointerEvents=1;dashed=0;fillColor=#036897;strokeColor=#ffffff;strokeWidth=2;verticalLabelPosition=bottom;verticalAlign=top;align=center;outlineConnect=0;" vertex="1" parent="1">
          <mxGeometry x="80" y="200.5" width="83" height="62" as="geometry" />
        </mxCell>
        <mxCell id="q-aWWqVt3g7oYGVb8VbU-33" value="gateway router" style="shape=mxgraph.cisco.routers.router;sketch=0;html=1;pointerEvents=1;dashed=0;fillColor=#036897;strokeColor=#ffffff;strokeWidth=2;verticalLabelPosition=bottom;verticalAlign=top;align=center;outlineConnect=0;" vertex="1" parent="1">
          <mxGeometry x="310" y="280" width="78" height="53" as="geometry" />
        </mxCell>
        <mxCell id="q-aWWqVt3g7oYGVb8VbU-34" value="" style="shape=mxgraph.cisco.computers_and_peripherals.workstation;sketch=0;html=1;pointerEvents=1;dashed=0;fillColor=#036897;strokeColor=#ffffff;strokeWidth=2;verticalLabelPosition=bottom;verticalAlign=top;align=center;outlineConnect=0;" vertex="1" parent="1">
          <mxGeometry x="80" y="350.5" width="83" height="62" as="geometry" />
        </mxCell>
        <mxCell id="q-aWWqVt3g7oYGVb8VbU-35" value="" style="endArrow=none;dashed=1;html=1;dashPattern=1 3;strokeWidth=2;rounded=0;" edge="1" parent="1" source="q-aWWqVt3g7oYGVb8VbU-34" target="q-aWWqVt3g7oYGVb8VbU-32">
          <mxGeometry width="50" height="50" relative="1" as="geometry">
            <mxPoint x="-230" y="392.5" as="sourcePoint" />
            <mxPoint x="-180" y="342.5" as="targetPoint" />
          </mxGeometry>
        </mxCell>
        <mxCell id="q-aWWqVt3g7oYGVb8VbU-36" value="" style="endArrow=none;html=1;rounded=0;" edge="1" parent="1" source="q-aWWqVt3g7oYGVb8VbU-34">
          <mxGeometry width="50" height="50" relative="1" as="geometry">
            <mxPoint x="-230" y="392.5" as="sourcePoint" />
            <mxPoint x="184.3187919463087" y="333.5" as="targetPoint" />
          </mxGeometry>
        </mxCell>
        <mxCell id="q-aWWqVt3g7oYGVb8VbU-37" value="" style="endArrow=none;html=1;rounded=0;" edge="1" parent="1" target="q-aWWqVt3g7oYGVb8VbU-32">
          <mxGeometry width="50" height="50" relative="1" as="geometry">
            <mxPoint x="184.77814569536417" y="280.5" as="sourcePoint" />
            <mxPoint x="-180" y="342.5" as="targetPoint" />
          </mxGeometry>
        </mxCell>
        <mxCell id="q-aWWqVt3g7oYGVb8VbU-49" value="192.168.1.50" style="text;html=1;align=center;verticalAlign=middle;whiteSpace=wrap;rounded=0;" vertex="1" parent="1">
          <mxGeometry x="163" y="232.5" width="60" height="30" as="geometry" />
        </mxCell>
        <mxCell id="q-aWWqVt3g7oYGVb8VbU-50" value="192.168.1.100" style="text;html=1;align=center;verticalAlign=middle;whiteSpace=wrap;rounded=0;" vertex="1" parent="1">
          <mxGeometry x="150" y="360.5" width="60" height="30" as="geometry" />
        </mxCell>
        <mxCell id="q-aWWqVt3g7oYGVb8VbU-52" value="" style="endArrow=none;html=1;rounded=0;exitX=0;exitY=0.5;exitDx=0;exitDy=0;exitPerimeter=0;" edge="1" parent="1" source="q-aWWqVt3g7oYGVb8VbU-33" target="q-aWWqVt3g7oYGVb8VbU-51">
          <mxGeometry width="50" height="50" relative="1" as="geometry">
            <mxPoint x="194.77814569536417" y="290.5" as="sourcePoint" />
            <mxPoint x="172" y="273" as="targetPoint" />
          </mxGeometry>
        </mxCell>
        <mxCell id="q-aWWqVt3g7oYGVb8VbU-53" value="192.168.1.1" style="text;html=1;align=center;verticalAlign=middle;whiteSpace=wrap;rounded=0;" vertex="1" parent="1">
          <mxGeometry x="253" y="250" width="60" height="30" as="geometry" />
        </mxCell>
        <mxCell id="q-aWWqVt3g7oYGVb8VbU-54" value="home network" style="rounded=1;whiteSpace=wrap;html=1;verticalAlign=top;fillColor=none;dashed=1;" vertex="1" parent="1">
          <mxGeometry x="40" y="172.5" width="370" height="267.5" as="geometry" />
        </mxCell>
        <mxCell id="q-aWWqVt3g7oYGVb8VbU-55" value="home network" style="rounded=1;whiteSpace=wrap;html=1;verticalAlign=top;fillColor=none;dashed=1;" vertex="1" parent="1">
          <mxGeometry x="980" y="470" width="570" height="310" as="geometry" />
        </mxCell>
        <mxCell id="q-aWWqVt3g7oYGVb8VbU-56" value="NAT&lt;div&gt;Network Address Trenslation&lt;/div&gt;" style="text;html=1;align=center;verticalAlign=middle;whiteSpace=wrap;rounded=0;" vertex="1" parent="1">
          <mxGeometry x="984" y="560" width="110" height="30" as="geometry" />
        </mxCell>
        <mxCell id="q-aWWqVt3g7oYGVb8VbU-57" value="NAT&lt;div&gt;Network Address Trenslation&lt;/div&gt;" style="text;html=1;align=center;verticalAlign=middle;whiteSpace=wrap;rounded=0;" vertex="1" parent="1">
          <mxGeometry x="294" y="210" width="110" height="30" as="geometry" />
        </mxCell>
      </root>
    </mxGraphModel>
  </diagram>
</mxfile>
